#!OML:ASF H:\ManfredETheater\Project 1\Capture day 1\Session 1\subject.ASF
:FULLY-SPECIFIED
:DEGREES
202
root -1.66773 17.0827 38.6507 9.75732 35.8702 6.14891
lowerback 17.4067 -0.896522 -2.24051
upperback 1.51068 -1.4758 1.1378
thorax -8.05003 -0.596195 2.84989
lowerneck -8.49177 -12.2314 -14.5362
upperneck -1.24928 -15.3814 14.7155
head 3.29243 -7.32542 5.69664
rclavicle 6.63941e-014 -2.14687e-014
rhumerus -40.6901 -10.9159 -76.2309
rradius 38.9997
rwrist -4.18606
rhand -21.9101 -12.3336
rfingers 7.12502
rthumb 4.49556 -42.2659
lclavicle 6.63941e-014 -2.14687e-014
lhumerus -47.4867 17.4034 68.1878
lradius 56.6322
lwrist -0.465729
lhand -19.5483 10.4816
lfingers 7.12502
lthumb 6.77592 40.3532
rfemur -26.1664 -6.41563 12.3377
rtibia 40.1487
rfoot -13.4397 -5.13994
rtoes 5.26673
lfemur -11.2035 -6.275 -5.23293
ltibia 40.7348
lfoot 5.57056 8.23806
ltoes -24.0297
203
root -1.67465 17.1082 38.7611 9.43889 35.2247 5.91091
lowerback 17.1046 -0.961183 -2.15133
upperback 1.3871 -1.54367 1.12914
thorax -8.01557 -0.633229 2.79942
lowerneck -8.75894 -12.1103 -14.3529
upperneck -0.991891 -15.2126 14.5092
head 3.3551 -7.23351 5.60751
rclavicle 2.72335e-014 0
rhumerus -40.6914 -10.6603 -76.5324
rradius 39.1593
rwrist -4.22696
rhand -21.7101 -12.4027
rfingers 7.12502
rthumb 4.6887 -42.3308
lclavicle 2.72335e-014 0
lhumerus -47.4088 17.1475 68.5909
lradius 56.6665
lwrist -0.682394
lhand -19.5093 10.2964
lfingers 7.12502
lthumb 6.81355 40.1668
rfemur -25.4679 -5.60087 12.6966
rtibia 39.5363
rfoot -13.5027 -5.24771
rtoes 5.46954
lfemur -10.9347 -6.42711 -5.13326
ltibia 41.153
lfoot 6.96106 8.58007
ltoes -22.3845
204
root -1.68335 17.1321 38.8699 9.13214 34.5997 5.66741
lowerback 16.8065 -1.02675 -2.06173
upperback 1.26279 -1.61238 1.12833
thorax -7.98357 -0.670475 2.75712
lowerneck -9.02055 -11.9935 -14.1685
upperneck -0.746682 -15.0507 14.3155
head 3.41608 -7.14529 5.5219
rclavicle -3.45885e-014 1.03368e-014
rhumerus -40.6947 -10.4133 -76.8219
rradius 39.3542
rwrist -4.2875
rhand -21.5103 -12.55
rfingers 7.12502
rthumb 4.88161 -42.4737
lclavicle -3.45885e-014 1.03368e-014
lhumerus -47.3266 16.849 69.0244
lradius 56.7249
lwrist -0.892457
lhand -19.4815 10.1248
lfingers 7.12502
lthumb 6.84039 39.9943
rfemur -24.781 -4.78609 13.0696
rtibia 38.9224
rfoot -13.5626 -5.37324
rtoes 5.7113
lfemur -10.7514 -6.59098 -5.03257
ltibia 41.6738
lfoot 8.31659 8.90621
ltoes -20.4276
205
root -1.69356 17.1544 38.9763 8.84706 33.9976 5.42933
lowerback 16.5122 -1.09498 -1.97468
upperback 1.13659 -1.68508 1.13266
thorax -7.95507 -0.709377 2.7225
lowerneck -9.28382 -11.8791 -14.0006
upperneck -0.503035 -14.8919 14.145
head 3.48137 -7.05816 5.44541
rclavicle 5.12864e-014 4.77083e-015
rhumerus -40.6953 -10.1722 -77.0985
rradius 39.5647
rwrist -4.3555
rhand -21.3434 -12.7109
rfingers 7.12502
rthumb 5.04274 -42.6309
lclavicle 5.12864e-014 4.77083e-015
lhumerus -47.2394 16.5326 69.4758
lradius 56.7994
lwrist -1.12389
lhand -19.4304 9.9424
lfingers 7.12502
lthumb 6.88965 39.8103
rfemur -24.1142 -3.98447 13.447
rtibia 38.3157
rfoot -13.6185 -5.51319
rtoes 5.99261
lfemur -10.661 -6.76684 -4.94413
ltibia 42.2945
lfoot 9.6035 9.20861
ltoes -18.1899
206
root -1.70513 17.1753 39.08 8.58599 33.4135 5.1972
lowerback 16.2221 -1.16428 -1.88964
upperback 1.0089 -1.75955 1.14178
thorax -7.92993 -0.748902 2.69432
lowerneck -9.554 -11.7679 -13.8505
upperneck -0.258688 -14.7365 13.9949
head 3.55221 -6.97201 5.3771
rclavicle -5.96354e-014 1.59028e-015
rhumerus -40.6874 -9.93158 -77.3631
rradius 39.7799
rwrist -4.42611
rhand -21.2155 -12.8643
rfingers 7.12502
rthumb 5.16627 -42.7813
lclavicle -5.96354e-014 1.59028e-015
lhumerus -47.1405 16.2128 69.9412
lradius 56.8796
lwrist -1.38234
lhand -19.3469 9.78303
lfingers 7.12502
lthumb 6.9703 39.6483
rfemur -23.4762 -3.19677 13.8268
rtibia 37.7232
rfoot -13.6699 -5.66261
rtoes 6.30554
lfemur -10.6665 -6.94315 -4.87109
ltibia 43.0084
lfoot 10.7905 9.45937
ltoes -15.5857
207
root -1.71677 17.1946 39.1805 8.35211 32.8424 4.99618
lowerback 15.9434 -1.23415 -1.81475
upperback 0.882116 -1.83746 1.14621
thorax -7.90961 -0.789718 2.66756
lowerneck -9.82863 -11.6572 -13.7144
upperneck -0.0119467 -14.5813 13.8626
head 3.6277 -6.88548 5.31611
rclavicle 4.94974e-014 -8.74653e-015
rhumerus -40.6619 -9.68479 -77.6203
rradius 39.9806
rwrist -4.52227
rhand -21.1553 -12.9895
rfingers 7.12502
rthumb 5.22443 -42.9051
lclavicle 4.94974e-014 -8.74653e-015
lhumerus -47.03 15.9139 70.4021
lradius 56.9476
lwrist -1.69979
lhand -19.2005 9.56733
lfingers 7.12502
lthumb 7.11159 39.4278
rfemur -22.857 -2.44548 14.1796
rtibia 37.1496
rfoot -13.7192 -5.79868
rtoes 6.64426
lfemur -10.7473 -7.12123 -4.84646
ltibia 43.8043
lfoot 11.7977 9.65008
ltoes -12.67
208
root -1.72933 17.2119 39.2786 8.12902 32.2777 4.80545
lowerback 15.6769 -1.30018 -1.75414
upperback 0.75973 -1.91283 1.15459
thorax -7.89066 -0.828705 2.65249
lowerneck -10.1096 -11.5455 -13.5841
upperneck 0.235831 -14.4244 13.738
head 3.70593 -6.79782 5.25846
rclavicle 5.64548e-014 -6.36111e-015
rhumerus -40.614 -9.43686 -77.8658
rradius 40.1594
rwrist -4.62907
rhand -21.1471 -13.0757
rfingers 7.12502
rthumb 5.23231 -42.9911
lclavicle 5.64548e-014 -6.36111e-015
lhumerus -46.9105 15.6413 70.8596
lradius 57.0127
lwrist -2.06174
lhand -18.9972 9.31836
lfingers 7.12502
lthumb 7.30786 39.1722
rfemur -22.2582 -1.69999 14.5271
rtibia 36.6022
rfoot -13.7679 -5.94292
rtoes 6.98579
lfemur -10.8931 -7.28397 -4.84564
ltibia 44.6705
lfoot 12.5483 9.74475
ltoes -9.54349
209
root -1.74126 17.2273 39.3745 7.89633 31.7032 4.6123
lowerback 15.4227 -1.3579 -1.68778
upperback 0.647248 -1.97619 1.16532
thorax -7.86846 -0.86215 2.63387
lowerneck -10.3921 -11.4337 -13.4586
upperneck 0.483579 -14.2676 13.6199
head 3.78581 -6.7101 5.20368
rclavicle 3.24019e-014 9.54166e-015
rhumerus -40.5493 -9.19751 -78.0941
rradius 40.3146
rwrist -4.73689
rhand -21.1945 -13.0925
rfingers 7.12502
rthumb 5.1865 -43.009
lclavicle 3.24019e-014 9.54166e-015
lhumerus -46.7685 15.3983 71.3119
lradius 57.0561
lwrist -2.46762
lhand -18.7557 9.03839
lfingers 7.12502
lthumb 7.54094 38.884
rfemur -21.6658 -0.962514 14.8756
rtibia 36.0857
rfoot -13.8192 -6.07535
rtoes 7.3001
lfemur -11.0698 -7.4243 -4.86825
ltibia 45.5918
lfoot 12.9588 9.73266
ltoes -6.46528
210
root -1.75281 17.2404 39.4681 7.65888 31.1156 4.4261
lowerback 15.1846 -1.40535 -1.62731
upperback 0.544432 -2.02719 1.17676
thorax -7.84509 -0.889428 2.61674
lowerneck -10.6698 -11.3209 -13.3317
upperneck 0.722508 -14.1102 13.5061
head 3.86297 -6.62234 5.15082
rclavicle 6.65929e-014 -1.90833e-014
rhumerus -40.4676 -8.96929 -78.3047
rradius 40.4587
rwrist -4.84737
rhand -21.2668 -13.0865
rfingers 7.12502
rthumb 5.11673 -43.0047
lclavicle 6.65929e-014 -1.90833e-014
lhumerus -46.5986 15.2101 71.7494
lradius 57.0648
lwrist -2.93115
lhand -18.4715 8.72073
lfingers 7.12502
lthumb 7.81523 38.5563
rfemur -21.0858 -0.229074 15.2166
rtibia 35.6053
rfoot -13.8721 -6.19653
rtoes 7.57902
lfemur -11.2717 -7.53605 -4.92215
ltibia 46.5578
lfoot 12.9576 9.59902
ltoes -3.72172
211
root -1.76318 17.2514 39.5601 7.41915 30.5279 4.26774
lowerback 14.9587 -1.44715 -1.58118
upperback 0.454432 -2.07378 1.18228
thorax -7.81451 -0.914338 2.60033
lowerneck -10.9382 -11.2083 -13.1938
upperneck 0.951228 -13.955 13.3882
head 3.93521 -6.53635 5.09577
rclavicle -4.37326e-015 1.82882e-014
rhumerus -40.3677 -8.75702 -78.4975
rradius 40.5829
rwrist -4.954
rhand -21.3601 -13.0595
rfingers 7.12502
rthumb 5.02668 -42.9799
lclavicle -4.37326e-015 1.82882e-014
lhumerus -46.422 14.9929 72.197
lradius 57.0915
lwrist -3.36223
lhand -18.1811 8.3817
lfingers 7.12502
lthumb 8.09558 38.2066
rfemur -20.5024 0.475575 15.5306
rtibia 35.1636
rfoot -13.9345 -6.29648
rtoes 7.82096
lfemur -11.4851 -7.63442 -5.03
ltibia 47.5574
lfoot 12.5204 9.34674
ltoes -1.46359
212
root -1.77305 17.2603 39.6497 7.17068 29.9407 4.11534
lowerback 14.7522 -1.48368 -1.53373
upperback 0.373522 -2.11336 1.18772
thorax -7.78528 -0.935872 2.5819
lowerneck -11.194 -11.0979 -13.0456
upperneck 1.16898 -13.8049 13.2649
head 4.00213 -6.45377 5.03798
rclavicle 7.15625e-015 -8.74653e-015
rhumerus -40.2647 -8.57701 -78.6652
rradius 40.7128
rwrist -5.03276
rhand -21.4456 -13.0337
rfingers 7.12502
rthumb 4.94406 -42.9561
lclavicle 7.15625e-015 -8.74653e-015
lhumerus -46.213 14.8175 72.6304
lradius 57.08
lwrist -3.82456
lhand -17.8632 8.01841
lfingers 7.12502
lthumb 8.40237 37.8313
rfemur -19.928 1.15625 15.8401
rtibia 34.7635
rfoot -14.004 -6.37946
rtoes 8.03261
lfemur -11.7185 -7.71101 -5.16728
ltibia 48.5836
lfoot 11.6743 8.97435
ltoes 0.176674
213
root -1.78289 17.2673 39.7368 6.9295 29.3605 3.97494
lowerback 14.5586 -1.51624 -1.49261
upperback 0.296374 -2.14892 1.19306
thorax -7.75916 -0.955159 2.56635
lowerneck -11.4376 -10.9918 -12.893
upperneck 1.37817 -13.6624 13.1407
head 4.06559 -6.37565 4.97925
rclavicle 1.45113e-014 8.74653e-015
rhumerus -40.1542 -8.42457 -78.8102
rradius 40.8398
rwrist -5.0908
rhand -21.5225 -13.0138
rfingers 7.12502
rthumb 4.86989 -42.9378
lclavicle 1.45113e-014 8.74653e-015
lhumerus -45.9883 14.6306 73.066
lradius 57.0638
lwrist -4.26286
lhand -17.5367 7.66006
lfingers 7.12502
lthumb 8.71748 37.46
rfemur -19.3762 1.81577 16.1411
rtibia 34.4025
rfoot -14.0747 -6.45925
rtoes 8.21128
lfemur -11.9909 -7.76622 -5.33516
ltibia 49.627
lfoot 10.4796 8.4947
ltoes 1.10458
214
root -1.79236 17.2727 39.8215 6.69074 28.7816 3.84782
lowerback 14.3798 -1.54403 -1.45809
upperback 0.223974 -2.17956 1.19642
thorax -7.73616 -0.971794 2.55172
lowerneck -11.659 -10.8898 -12.7315
upperneck 1.57174 -13.5282 13.0121
head 4.12136 -6.30284 4.91836
rclavicle -7.12643e-014 3.97569e-015
rhumerus -40.0357 -8.2899 -78.9383
rradius 40.9573
rwrist -5.13632
rhand -21.5975 -13.0096
rfingers 7.12502
rthumb 4.79743 -42.9353
lclavicle -7.12643e-014 3.97569e-015
lhumerus -45.7493 14.4312 73.5015
lradius 57.0348
lwrist -4.67721
lhand -17.218 7.33659
lfingers 7.12502
lthumb 9.02502 37.1235
rfemur -18.8389 2.45046 16.431
rtibia 34.0764
rfoot -14.1508 -6.52526
rtoes 8.36393
lfemur -12.2926 -7.7947 -5.53912
ltibia 50.6788
lfoot 9.05442 7.92621
ltoes 1.42658
215
root -1.80139 17.2768 39.9041 6.44867 28.2032 3.72591
lowerback 14.2167 -1.56782 -1.42223
upperback 0.15625 -2.20487 1.19895
thorax -7.7173 -0.985819 2.53475
lowerneck -11.8595 -10.7902 -12.5749
upperneck 1.75567 -13.3993 12.889
head 4.17275 -6.23344 4.86043
rclavicle 2.08724e-015 -1.51076e-014
rhumerus -39.9102 -8.17134 -79.0523
rradius 41.0654
rwrist -5.17504
rhand -21.672 -13.0267
rfingers 7.12502
rthumb 4.7255 -42.954
lclavicle 2.08724e-015 -1.51076e-014
lhumerus -45.5036 14.2201 73.9346
lradius 56.9952
lwrist -5.06309
lhand -16.9143 7.05692
lfingers 7.12502
lthumb 9.31807 36.831
rfemur -18.3107 3.0677 16.7172
rtibia 33.781
rfoot -14.2335 -6.58162
rtoes 8.51897
lfemur -12.6186 -7.79871 -5.77333
ltibia 51.7268
lfoot 7.50491 7.31181
ltoes 1.24115
216
root -1.81016 17.2798 39.9849 6.21667 27.6304 3.61065
lowerback 14.0559 -1.58924 -1.38585
upperback 0.0900754 -2.22706 1.2009
thorax -7.69815 -0.998363 2.51621
lowerneck -12.04 -10.6929 -12.431
upperneck 1.93087 -13.2743 12.7749
head 4.22079 -6.16669 4.80783
rclavicle -1.96797e-014 -8.74653e-015
rhumerus -39.7753 -8.07218 -79.1517
rradius 41.1555
rwrist -5.19438
rhand -21.7359 -13.0495
rfingers 7.12502
rthumb 4.66379 -42.9782
lclavicle -1.96797e-014 -8.74653e-015
lhumerus -45.2497 13.9948 74.3648
lradius 56.9378
lwrist -5.41662
lhand -16.6254 6.83898
lfingers 7.12502
lthumb 9.59674 36.6004
rfemur -17.8027 3.6588 16.9982
rtibia 33.5117
rfoot -14.3188 -6.62327
rtoes 8.67806
lfemur -12.9855 -7.775 -6.03533
ltibia 52.7605
lfoot 5.9526 6.66587
ltoes 0.744367
